<svg width="706" height="818" viewBox="0 0 706 818" fill="none" xmlns="http://www.w3.org/2000/svg">
<path d="M3.49845 7.02161C5.3869 7.02161 6.91779 5.52913 6.91779 3.68805C6.91779 1.84698 5.3869 0.354492 3.49845 0.354492C1.60999 0.354492 0.0791016 1.84698 0.0791016 3.68805C0.0791016 5.52913 1.60999 7.02161 3.49845 7.02161Z" fill="#0C7E9F"/>
<path d="M38.0346 7.02161C39.923 7.02161 41.4539 5.52913 41.4539 3.68805C41.4539 1.84698 39.923 0.354492 38.0346 0.354492C36.1461 0.354492 34.6152 1.84698 34.6152 3.68805C34.6152 5.52913 36.1461 7.02161 38.0346 7.02161Z" fill="#0C7E9F"/>
<path d="M72.5697 7.02161C74.4582 7.02161 75.9891 5.52913 75.9891 3.68805C75.9891 1.84698 74.4582 0.354492 72.5697 0.354492C70.6813 0.354492 69.1504 1.84698 69.1504 3.68805C69.1504 5.52913 70.6813 7.02161 72.5697 7.02161Z" fill="#0C7E9F"/>
<path d="M106.934 7.02161C108.822 7.02161 110.353 5.52913 110.353 3.68805C110.353 1.84698 108.822 0.354492 106.934 0.354492C105.046 0.354492 103.515 1.84698 103.515 3.68805C103.515 5.52913 105.046 7.02161 106.934 7.02161Z" fill="#0C7E9F"/>
<path d="M6.91779 33.3577C6.91779 35.1912 5.37909 36.6913 3.49845 36.6913C1.61781 36.6913 0.0791016 35.1912 0.0791016 33.3577C0.0791016 31.5243 1.61781 30.0242 3.49845 30.0242C5.37909 30.0242 6.91779 31.5243 6.91779 33.3577Z" fill="#0C7E9F"/>
<path d="M41.4539 33.3577C41.4539 35.1912 39.9152 36.6913 38.0346 36.6913C36.1539 36.6913 34.6152 35.1912 34.6152 33.3577C34.6152 31.5243 36.1539 30.0242 38.0346 30.0242C39.9152 30.0242 41.4539 31.5243 41.4539 33.3577Z" fill="#0C7E9F"/>
<path d="M75.9891 33.3577C75.9891 35.1912 74.4504 36.6913 72.5697 36.6913C70.6891 36.6913 69.1504 35.1912 69.1504 33.3577C69.1504 31.5243 70.6891 30.0242 72.5697 30.0242C74.4504 30.0242 75.9891 31.5243 75.9891 33.3577Z" fill="#0C7E9F"/>
<path d="M110.353 33.3577C110.353 35.1912 108.815 36.6913 106.934 36.6913C105.053 36.6913 103.515 35.1912 103.515 33.3577C103.515 31.5243 105.053 30.0242 106.934 30.0242C108.815 30.0242 110.353 31.5243 110.353 33.3577Z" fill="#0C7E9F"/>
<path d="M6.91779 62.8597C6.91779 64.6931 5.37909 66.1932 3.49845 66.1932C1.61781 66.1932 0.0791016 64.6931 0.0791016 62.8597C0.0791016 61.0262 1.61781 59.5261 3.49845 59.5261C5.37909 59.5261 6.91779 61.0262 6.91779 62.8597Z" fill="#0C7E9F"/>
<path d="M41.4539 62.8597C41.4539 64.6931 39.9152 66.1932 38.0346 66.1932C36.1539 66.1932 34.6152 64.6931 34.6152 62.8597C34.6152 61.0262 36.1539 59.5261 38.0346 59.5261C39.9152 59.5261 41.4539 61.0262 41.4539 62.8597Z" fill="#0C7E9F"/>
<path d="M6.91779 92.5291C6.91779 94.3626 5.37909 95.8627 3.49845 95.8627C1.61781 95.8627 0.0791016 94.3626 0.0791016 92.5291C0.0791016 90.6957 1.61781 89.1956 3.49845 89.1956C5.37909 89.1956 6.91779 90.6957 6.91779 92.5291Z" fill="#0C7E9F"/>
<path d="M41.4539 92.5291C41.4539 94.3626 39.9152 95.8627 38.0346 95.8627C36.1539 95.8627 34.6152 94.3626 34.6152 92.5291C34.6152 90.6957 36.1539 89.1956 38.0346 89.1956C39.9152 89.1956 41.4539 90.6957 41.4539 92.5291Z" fill="#0C7E9F"/>
<path d="M702.5 687.637C704.389 687.637 705.92 686.145 705.92 684.304C705.92 682.463 704.389 680.97 702.5 680.97C700.612 680.97 699.081 682.463 699.081 684.304C699.081 686.145 700.612 687.637 702.5 687.637Z" fill="#0C7E9F"/>
<path d="M702.5 653.969C704.389 653.969 705.92 652.476 705.92 650.635C705.92 648.794 704.389 647.302 702.5 647.302C700.612 647.302 699.081 648.794 699.081 650.635C699.081 652.476 700.612 653.969 702.5 653.969Z" fill="#0C7E9F"/>
<path d="M702.5 620.298C704.389 620.298 705.92 618.806 705.92 616.965C705.92 615.124 704.389 613.631 702.5 613.631C700.612 613.631 699.081 615.124 699.081 616.965C699.081 618.806 700.612 620.298 702.5 620.298Z" fill="#0C7E9F"/>
<path d="M702.5 586.797C704.389 586.797 705.92 585.304 705.92 583.463C705.92 581.622 704.389 580.129 702.5 580.129C700.612 580.129 699.081 581.622 699.081 583.463C699.081 585.304 700.612 586.797 702.5 586.797Z" fill="#0C7E9F"/>
<path d="M672.24 687.637C674.128 687.637 675.659 686.145 675.659 684.304C675.659 682.463 674.128 680.97 672.24 680.97C670.351 680.97 668.82 682.463 668.82 684.304C668.82 686.145 670.351 687.637 672.24 687.637Z" fill="#0C7E9F"/>
<path d="M672.24 653.969C674.128 653.969 675.659 652.476 675.659 650.635C675.659 648.794 674.128 647.302 672.24 647.302C670.351 647.302 668.82 648.794 668.82 650.635C668.82 652.476 670.351 653.969 672.24 653.969Z" fill="#0C7E9F"/>
<path d="M672.24 620.298C674.128 620.298 675.659 618.806 675.659 616.965C675.659 615.124 674.128 613.631 672.24 613.631C670.351 613.631 668.82 615.124 668.82 616.965C668.82 618.806 670.351 620.298 672.24 620.298Z" fill="#0C7E9F"/>
<path d="M672.24 586.797C674.128 586.797 675.659 585.304 675.659 583.463C675.659 581.622 674.128 580.129 672.24 580.129C670.351 580.129 668.82 581.622 668.82 583.463C668.82 585.304 670.351 586.797 672.24 586.797Z" fill="#0C7E9F"/>
<path d="M641.807 687.634C643.695 687.634 645.226 686.141 645.226 684.3C645.226 682.459 643.695 680.967 641.807 680.967C639.919 680.967 638.388 682.459 638.388 684.3C638.388 686.141 639.919 687.634 641.807 687.634Z" fill="#0C7E9F"/>
<path d="M641.807 653.967C643.695 653.967 645.226 652.474 645.226 650.633C645.226 648.792 643.695 647.3 641.807 647.3C639.919 647.3 638.388 648.792 638.388 650.633C638.388 652.474 639.919 653.967 641.807 653.967Z" fill="#0C7E9F"/>
<path d="M611.375 680.802C609.495 680.802 607.956 682.302 607.956 684.135C607.956 685.969 609.495 687.469 611.375 687.469C613.256 687.469 614.795 685.969 614.795 684.135C614.795 682.302 613.256 680.802 611.375 680.802Z" fill="#0C7E9F"/>
<path d="M611.375 647.3C609.495 647.3 607.956 648.8 607.956 650.633C607.956 652.467 609.495 653.967 611.375 653.967C613.256 653.967 614.795 652.467 614.795 650.633C614.795 648.8 613.256 647.3 611.375 647.3Z" fill="#0C7E9F"/>
<path d="M74.3691 247.438V252.271L100.014 227.103H95.0562L74.3691 247.438Z" fill="#00E0F2"/>
<path d="M168.914 227.103H163.956L74.3691 314.442V319.276L168.914 227.103Z" fill="#00E0F2"/>
<path d="M123.095 227.103H118.137L74.3691 269.773V274.606L123.095 227.103Z" fill="#00E0F2"/>
<path d="M188.404 227.103H186.866L74.3691 336.777V338.277H77.7885L188.404 230.437V227.103Z" fill="#00E0F2"/>
<path d="M146.004 227.103H141.046L74.3691 292.107V296.941L146.004 227.103Z" fill="#00E0F2"/>
<path d="M188.405 297.444V292.61L141.56 338.28H146.518L188.405 297.444Z" fill="#00E0F2"/>
<path d="M188.405 319.773V314.939L164.47 338.274H169.428L188.405 319.773Z" fill="#00E0F2"/>
<path d="M188.404 252.772V247.938L95.7402 338.277H100.698L188.404 252.772Z" fill="#00E0F2"/>
<path d="M188.405 275.107V270.273L118.65 338.278H123.608L188.405 275.107Z" fill="#00E0F2"/>
<path d="M158.484 674.637V676.97L170.794 664.969H168.401L158.484 674.637Z" fill="#00E0F2"/>
<path d="M203.449 664.969H201.055L158.484 706.472V708.806L203.449 664.969Z" fill="#00E0F2"/>
<path d="M181.565 664.969H179.171L158.484 685.304V687.637L181.565 664.969Z" fill="#00E0F2"/>
<path d="M212.681 664.969H211.997L158.484 717.139V717.806H160.023L212.681 666.636V664.969Z" fill="#00E0F2"/>
<path d="M192.507 664.969H190.113L158.484 695.971V698.138L192.507 664.969Z" fill="#00E0F2"/>
<path d="M212.681 698.47V696.136L190.455 717.805H192.849L212.681 698.47Z" fill="#00E0F2"/>
<path d="M212.68 709.139V706.806L201.396 717.807H203.619L212.68 709.139Z" fill="#00E0F2"/>
<path d="M212.681 677.305V674.971L168.571 717.808H170.965L212.681 677.305Z" fill="#00E0F2"/>
<path d="M212.68 687.806V685.472L179.513 717.808H181.906L212.68 687.806Z" fill="#00E0F2"/>
<path d="M527.431 204.771H370.312V357.948H527.431V204.771Z" fill="#00C3C7"/>
<path d="M213.023 51.428H55.9043V204.605H213.023V51.428Z" fill="#003D6D"/>
<path d="M644.202 565.795H586.244V622.299H644.202V565.795Z" fill="#B4E8F8"/>
<path d="M585.389 148.1H527.432V204.604H585.389V148.1Z" fill="#142360"/>
<path d="M370.141 204.771H213.022V357.948H370.141V204.771Z" fill="#00C3C7"/>
<path d="M370.141 511.125H213.022V664.302H370.141V511.125Z" fill="#003D6D"/>
<path d="M318.68 561.463H264.654V614.133H318.68V561.463Z" fill="#00C3C7"/>
<path d="M370.331 511.15H527.45V357.973H370.331V511.15Z" fill="#0055A5"/>
<path d="M56.01 511.15H213.129L213.129 357.973H56.01L56.01 511.15Z" fill="#B4E8F8"/>
<path d="M213.257 511.15H370.376V357.973H213.257L213.257 511.15Z" fill="#0095D5"/>
<path d="M527.576 511.15H684.695V357.973H527.576V511.15Z" fill="#142360"/>
<path d="M370.312 204.771L213.022 357.948H370.312V204.771Z" fill="#142360"/>
<path d="M213.195 511.126H286.027C286.369 465.956 323.982 429.453 370.314 429.453V358.448C283.634 358.615 213.537 426.786 213.195 511.126Z" fill="white"/>
<path d="M370.33 664.448H527.449V511.271H370.33V664.448Z" fill="#B4E8F8"/>
<path d="M454.599 511.125C454.599 511.292 454.599 511.458 454.599 511.792C454.599 557.295 416.816 594.131 370.142 594.131V664.469H383.648C464.174 657.802 527.261 591.964 527.261 511.792C527.261 511.625 527.261 511.458 527.261 511.125H454.599Z" fill="#00C3C7"/>
<path d="M320.733 156.268V99.7639L262.775 156.268H320.733Z" fill="#00C3C7"/>
<path d="M170.452 463.122V406.618L112.494 463.122H170.452Z" fill="#0055A5"/>
<path d="M370.313 664.468V817.645L527.432 664.468H370.313Z" fill="#0095D5"/>
<path d="M370.312 51.428V204.772L527.431 51.428H370.312Z" fill="#0095D5"/>
</svg>
