<svg width="40" height="41" viewBox="0 0 40 41" fill="none" xmlns="http://www.w3.org/2000/svg">
<path d="M8.51562 31.9844C7.07813 30.5469 8.03125 27.5312 7.29688 25.7656C6.5625 24 3.75 22.4531 3.75 20.5C3.75 18.5469 6.53125 17.0625 7.29688 15.2344C8.0625 13.4063 7.07813 10.4531 8.51562 9.01562C9.95312 7.57813 12.9688 8.53125 14.7344 7.79688C16.5 7.0625 18.0469 4.25 20 4.25C21.9531 4.25 23.4375 7.03125 25.2656 7.79688C27.0937 8.5625 30.0469 7.57813 31.4844 9.01562C32.9219 10.4531 31.9688 13.4688 32.7031 15.2344C33.4375 17 36.25 18.5469 36.25 20.5C36.25 22.4531 33.4688 23.9375 32.7031 25.7656C31.9375 27.5937 32.9219 30.5469 31.4844 31.9844C30.0469 33.4219 27.0312 32.4688 25.2656 33.2031C23.5 33.9375 21.9531 36.75 20 36.75C18.0469 36.75 16.5625 33.9688 14.7344 33.2031C12.9063 32.4375 9.95312 33.4219 8.51562 31.9844Z" stroke="#393E50" stroke-width="2" stroke-linecap="round" stroke-linejoin="round"/>
<path d="M20 30.5C21.0355 30.5 21.875 29.6605 21.875 28.625C21.875 27.5895 21.0355 26.75 20 26.75C18.9645 26.75 18.125 27.5895 18.125 28.625C18.125 29.6605 18.9645 30.5 20 30.5Z" fill="#393E50"/>
<path d="M20 23V21.75C20.8653 21.75 21.7112 21.4934 22.4306 21.0127C23.1501 20.5319 23.7108 19.8487 24.042 19.0492C24.3731 18.2498 24.4597 17.3701 24.2909 16.5215C24.1221 15.6728 23.7054 14.8933 23.0936 14.2814C22.4817 13.6696 21.7022 13.2529 20.8535 13.0841C20.0049 12.9153 19.1252 13.0019 18.3258 13.333C17.5263 13.6642 16.8431 14.2249 16.3623 14.9444C15.8816 15.6638 15.625 16.5097 15.625 17.375" stroke="#393E50" stroke-width="2" stroke-linecap="round" stroke-linejoin="round"/>
</svg>
