<svg width="40" height="41" viewBox="0 0 40 41" fill="none" xmlns="http://www.w3.org/2000/svg">
<path d="M26.25 35.5H8.75C8.41848 35.5 8.10054 35.3683 7.86612 35.1339C7.6317 34.8995 7.5 34.5815 7.5 34.25V11.75C7.5 11.4185 7.6317 11.1005 7.86612 10.8661C8.10054 10.6317 8.41848 10.5 8.75 10.5H21.25L27.5 16.75V34.25C27.5 34.5815 27.3683 34.8995 27.1339 35.1339C26.8995 35.3683 26.5815 35.5 26.25 35.5Z" stroke="#393E50" stroke-width="2" stroke-linecap="round" stroke-linejoin="round"/>
<path d="M12.5 10.5V6.75C12.5 6.41848 12.6317 6.10054 12.8661 5.86612C13.1005 5.6317 13.4185 5.5 13.75 5.5H26.25L32.5 11.75V29.25C32.5 29.5815 32.3683 29.8995 32.1339 30.1339C31.8995 30.3683 31.5815 30.5 31.25 30.5H27.5" stroke="#393E50" stroke-width="2" stroke-linecap="round" stroke-linejoin="round"/>
<path d="M13.75 24.25H21.25" stroke="#393E50" stroke-width="2" stroke-linecap="round" stroke-linejoin="round"/>
<path d="M13.75 29.25H21.25" stroke="#393E50" stroke-width="2" stroke-linecap="round" stroke-linejoin="round"/>
</svg>
