<svg width="40" height="41" viewBox="0 0 40 41" fill="none" xmlns="http://www.w3.org/2000/svg">
<path d="M7.91992 29.3906C9.29209 26.6281 10.0035 23.5845 9.99805 20.5C9.99935 19.0003 10.3369 17.5199 10.9859 16.1679C11.6349 14.8159 12.5787 13.6266 13.748 12.6875" stroke="#393E50" stroke-width="2" stroke-linecap="round" stroke-linejoin="round"/>
<path d="M20 20.5C20.0068 25.5839 18.7161 30.5855 16.25 35.0312" stroke="#393E50" stroke-width="2" stroke-linecap="round" stroke-linejoin="round"/>
<path d="M15 20.5C15 19.1739 15.5268 17.9021 16.4645 16.9645C17.4021 16.0268 18.6739 15.5 20 15.5C21.3261 15.5 22.5979 16.0268 23.5355 16.9645C24.4732 17.9021 25 19.1739 25 20.5C25.0103 25.6541 23.8735 30.746 21.6719 35.4063" stroke="#393E50" stroke-width="2" stroke-linecap="round" stroke-linejoin="round"/>
<path d="M34.1563 29.25C34.716 26.3669 34.9985 23.4369 35 20.5C35 16.5218 33.4196 12.7064 30.6066 9.8934C27.7936 7.08035 23.9782 5.5 20 5.5C16.0218 5.5 12.2064 7.08035 9.3934 9.8934C6.58035 12.7064 5 16.5218 5 20.5C5.00447 22.2038 4.71371 23.8955 4.14062 25.5" stroke="#393E50" stroke-width="2" stroke-linecap="round" stroke-linejoin="round"/>
<path d="M14.498 25.5C13.9583 28.129 13.0037 30.6554 11.6699 32.9844" stroke="#393E50" stroke-width="2" stroke-linecap="round" stroke-linejoin="round"/>
<path d="M18.75 10.5781C19.1648 10.5283 19.5822 10.5022 20 10.5C22.6522 10.5 25.1957 11.5536 27.0711 13.4289C28.9464 15.3043 30 17.8478 30 20.5C29.9986 22.1715 29.8942 23.8413 29.6875 25.5" stroke="#393E50" stroke-width="2" stroke-linecap="round" stroke-linejoin="round"/>
<path d="M28.7363 30.5C28.502 31.4219 28.2363 32.3438 27.9395 33.2344" stroke="#393E50" stroke-width="2" stroke-linecap="round" stroke-linejoin="round"/>
</svg>
