<svg width="40" height="41" viewBox="0 0 40 41" fill="none" xmlns="http://www.w3.org/2000/svg">
<rect width="40" height="40" transform="translate(0 0.5)" fill="white"/>
<path d="M20 28C24.1421 28 27.5 24.6421 27.5 20.5C27.5 16.3579 24.1421 13 20 13C15.8579 13 12.5 16.3579 12.5 20.5C12.5 24.6421 15.8579 28 20 28Z" stroke="#393E50" stroke-width="2" stroke-linecap="round" stroke-linejoin="round"/>
<path d="M28.707 10.6719C29.1029 11.0365 29.4779 11.4115 29.832 11.7969L34.0977 12.4062C34.7927 13.6133 35.3284 14.9053 35.6914 16.25L33.0977 19.7031C33.0977 19.7031 33.1445 20.7656 33.0977 21.2969L35.6914 24.75C35.3301 26.0953 34.7943 27.3875 34.0977 28.5937L29.832 29.2031C29.832 29.2031 29.0977 29.9687 28.707 30.3281L28.0977 34.5937C26.8906 35.2888 25.5986 35.8245 24.2539 36.1875L20.8008 33.5937C20.2706 33.6406 19.7372 33.6406 19.207 33.5937L15.7539 36.1875C14.4086 35.8262 13.1164 35.2904 11.9102 34.5937L11.3008 30.3281C10.9154 29.9635 10.5404 29.5885 10.1758 29.2031L5.91016 28.5937C5.21513 27.3867 4.67942 26.0947 4.31641 24.75L6.91016 21.2969C6.91016 21.2969 6.86328 20.2344 6.91016 19.7031L4.31641 16.25C4.67774 14.9047 5.21353 13.6125 5.91016 12.4062L10.1758 11.7969C10.5404 11.4115 10.9154 11.0365 11.3008 10.6719L11.9102 6.40625C13.1172 5.71122 14.4092 5.17551 15.7539 4.8125L19.207 7.40625C19.7372 7.35936 20.2706 7.35936 20.8008 7.40625L24.2539 4.8125C25.5992 5.17383 26.8914 5.70963 28.0977 6.40625L28.707 10.6719Z" stroke="#393E50" stroke-width="2" stroke-linecap="round" stroke-linejoin="round"/>
</svg>
