<svg width="34" height="34" viewBox="0 0 34 34" fill="none" xmlns="http://www.w3.org/2000/svg">
<path d="M17 24.5129C21.1421 24.5129 24.5 21.1551 24.5 17.0129C24.5 12.8708 21.1421 9.51294 17 9.51294C12.8579 9.51294 9.5 12.8708 9.5 17.0129C9.5 21.1551 12.8579 24.5129 17 24.5129Z" stroke="#393E50" stroke-width="2" stroke-linecap="round" stroke-linejoin="round"/>
<path d="M25.7031 7.18506C26.099 7.54964 26.474 7.92464 26.8281 8.31006L31.0937 8.91943C31.7888 10.1265 32.3245 11.4185 32.6875 12.7632L30.0937 16.2163C30.0937 16.2163 30.1406 17.2788 30.0937 17.8101L32.6875 21.2632C32.3262 22.6085 31.7904 23.9007 31.0937 25.1069L26.8281 25.7163C26.8281 25.7163 26.0937 26.4819 25.7031 26.8413L25.0937 31.1069C23.8867 31.802 22.5947 32.3377 21.25 32.7007L17.7969 30.1069C17.2667 30.1538 16.7333 30.1538 16.2031 30.1069L12.75 32.7007C11.4047 32.3394 10.1125 31.8036 8.90625 31.1069L8.29688 26.8413C7.91146 26.4767 7.53646 26.1017 7.17188 25.7163L2.90625 25.1069C2.21122 23.8999 1.67551 22.6079 1.3125 21.2632L3.90625 17.8101C3.90625 17.8101 3.85938 16.7476 3.90625 16.2163L1.3125 12.7632C1.67383 11.4179 2.20963 10.1257 2.90625 8.91943L7.17188 8.31006C7.53646 7.92464 7.91146 7.54964 8.29688 7.18506L8.90625 2.91943C10.1133 2.22441 11.4053 1.6887 12.75 1.32568L16.2031 3.91943C16.7333 3.87255 17.2667 3.87255 17.7969 3.91943L21.25 1.32568C22.5953 1.68701 23.8875 2.22281 25.0937 2.91943L25.7031 7.18506Z" stroke="#393E50" stroke-width="2" stroke-linecap="round" stroke-linejoin="round"/>
</svg>
