<svg width="40" height="41" viewBox="0 0 40 41" fill="none" xmlns="http://www.w3.org/2000/svg">
<path d="M36.25 10.5H3.75C3.05964 10.5 2.5 11.0596 2.5 11.75V29.25C2.5 29.9404 3.05964 30.5 3.75 30.5H36.25C36.9404 30.5 37.5 29.9404 37.5 29.25V11.75C37.5 11.0596 36.9404 10.5 36.25 10.5Z" stroke="#393E50" stroke-width="2" stroke-linecap="round" stroke-linejoin="round"/>
<path d="M20 25.5C22.7614 25.5 25 23.2614 25 20.5C25 17.7386 22.7614 15.5 20 15.5C17.2386 15.5 15 17.7386 15 20.5C15 23.2614 17.2386 25.5 20 25.5Z" stroke="#393E50" stroke-width="2" stroke-linecap="round" stroke-linejoin="round"/>
<path d="M27.5 10.5L37.5 19.25" stroke="#393E50" stroke-width="2" stroke-linecap="round" stroke-linejoin="round"/>
<path d="M27.5 30.5L37.5 21.75" stroke="#393E50" stroke-width="2" stroke-linecap="round" stroke-linejoin="round"/>
<path d="M12.5 10.5L2.5 19.25" stroke="#393E50" stroke-width="2" stroke-linecap="round" stroke-linejoin="round"/>
<path d="M12.5 30.5L2.5 21.75" stroke="#393E50" stroke-width="2" stroke-linecap="round" stroke-linejoin="round"/>
</svg>
